# xmcd
#
# Track frame offsets:
#	150
#	17416
#	33691
#	53918
#	68817
#	93535
#	110106
#	121808
#	143120
#	163097
#	184132
#
# Disc length: 2725 seconds
#
# Revision: 1
# Processed by: cddbd v1.5.2PL0 Copyright (c) Steve Scherf et al.
# Submitted via: audiograbber 1.83.01
#
DISCID=990aa30b
DTITLE=Karl David und Martin Lutz - alemannischi songs
DYEAR=2007
DGENRE=Pop
TTITLE0=Läbä ebä doch
TTITLE1=Segä Leechtblick Rätsel
TTITLE2=Block II
TTITLE3=Fernweh
TTITLE4=De Kopfweh-Blues
TTITLE5=Ha di leeb
TTITLE6=D'Gedankä sin frei
TTITLE7=Unser Platz am Rhi
TTITLE8='s Läbä geht widder
TTITLE9=Was wirklich zellt
TTITLE10=D'Ziddä sin hert
EXTD=http://www.alemannischi-songs.de\n\n
EXTT0=
EXTT1=
EXTT2=
EXTT3=
EXTT4=
EXTT5=
EXTT6=
EXTT7=
EXTT8=
EXTT9=
EXTT10=
PLAYORDER=
